<svg width="24" height="24" viewBox="0 0 24 24" fill="none" xmlns="http://www.w3.org/2000/svg">
<path fill-rule="evenodd" clip-rule="evenodd" d="M12 20.9998C7.02944 20.9998 3 16.9703 3 11.9998C3 7.02919 7.02944 2.99976 12 2.99976C16.9706 2.99976 21 7.02919 21 11.9998C21 16.9703 16.9706 20.9998 12 20.9998ZM6.17738 15.5684C5.95045 15.24 5.94047 14.8082 6.152 14.4698L11.152 6.46976C11.3347 6.17738 11.6552 5.99976 12 5.99976C12.3448 5.99976 12.6653 6.17738 12.848 6.46976L17.848 14.4698C18.0595 14.8082 18.0496 15.24 17.8226 15.5683C17.5957 15.8967 17.1953 16.0586 16.8039 15.9803L12 15.0196L7.19612 15.9803C6.80475 16.0586 6.40432 15.8967 6.17738 15.5684Z" fill="#BDBDBD"/>
<path fill-rule="evenodd" clip-rule="evenodd" d="M6.152 14.4698C5.94047 14.8082 5.95045 15.24 6.17738 15.5684C6.40432 15.8967 6.80475 16.0586 7.19612 15.9803L12 15.0196L16.8039 15.9803C17.1953 16.0586 17.5957 15.8967 17.8226 15.5683C18.0496 15.24 18.0595 14.8082 17.848 14.4698L12.848 6.46976C12.6653 6.17738 12.3448 5.99976 12 5.99976C11.6552 5.99976 11.3347 6.17738 11.152 6.46976L6.152 14.4698ZM11.8039 13.0192L9.07614 13.5647L12 8.88655L14.9239 13.5647L12.1961 13.0192C12.0667 12.9933 11.8039 13.0192 11.8039 13.0192Z" fill="white"/>
<path d="M11.8039 13.0192L9.07614 13.5647L12 8.88655L14.9239 13.5647L12.1961 13.0192C12.0667 12.9933 11.8039 13.0192 11.8039 13.0192Z" fill="white"/>
<path fill-rule="evenodd" clip-rule="evenodd" d="M1 11.9998C1 18.0749 5.92487 22.9998 12 22.9998C18.0751 22.9998 23 18.0749 23 11.9998C23 5.92462 18.0751 0.999755 12 0.999755C5.92487 0.999756 0.999999 5.92462 1 11.9998ZM3 11.9998C3 16.9703 7.02944 20.9998 12 20.9998C16.9706 20.9998 21 16.9703 21 11.9998C21 7.02919 16.9706 2.99976 12 2.99976C7.02944 2.99976 3 7.02919 3 11.9998Z" fill="#BDBDBD"/>
</svg>
