<svg width="24" height="24" viewBox="0 0 24 24" fill="none" xmlns="http://www.w3.org/2000/svg">
<path d="M3.00015 22C2.70015 22 2.50015 21.9 2.30015 21.7C2.00015 21.4 1.90015 21 2.10015 20.7L3.90015 15.4C3.30015 14.2 3.00015 12.8 3.00015 11.5C3.00015 7.9 5.00015 4.6 8.30015 3C9.60015 2.3 11.0001 2 12.5001 2H13.0001C17.9001 2.3 21.7001 6.1 22.0001 10.9V11.5C22.0001 13 21.7001 14.4 21.0001 15.8C19.4001 19 16.1001 21 12.5001 21C11.2001 21 9.80015 20.7 8.60015 20.2L3.30015 22C3.20015 22 3.10015 22 3.00015 22ZM12.5001 4C11.3001 4 10.2001 4.3 9.20015 4.8C6.60015 6.1 5.00015 8.6 5.00015 11.5C5.00015 12.7 5.30015 13.8 5.80015 14.8C5.90015 15 5.90015 15.3 5.90015 15.6L4.60015 19.4L8.40015 18.1C8.70015 18 8.90015 18 9.20015 18.2C10.2001 18.7 11.4001 19 12.5001 19C15.4001 19 17.9001 17.4 19.2001 14.9C19.7001 13.9 20.0001 12.7 20.0001 11.6V11C19.8001 7.2 16.8001 4.2 12.9001 4H12.5001Z" fill="#212121"/>
</svg>
