<svg width="32" height="32" viewBox="0 0 32 32" fill="none" xmlns="http://www.w3.org/2000/svg">
<path fill-rule="evenodd" clip-rule="evenodd" d="M15.2929 5.29289C15.6834 4.90237 16.3166 4.90237 16.7071 5.29289L20.7071 9.29289C21.0976 9.68342 21.0976 10.3166 20.7071 10.7071C20.3166 11.0976 19.6834 11.0976 19.2929 10.7071L17 8.41421V19C17 19.5523 16.5523 20 16 20C15.4477 20 15 19.5523 15 19V8.41421L12.7071 10.7071C12.3166 11.0976 11.6834 11.0976 11.2929 10.7071C10.9024 10.3166 10.9024 9.68342 11.2929 9.29289L15.2929 5.29289ZM8 15C8.55228 15 9 15.4477 9 16V24C9 24.2652 9.10536 24.5196 9.29289 24.7071C9.48043 24.8946 9.73478 25 10 25H22C22.2652 25 22.5196 24.8946 22.7071 24.7071C22.8946 24.5196 23 24.2652 23 24V16C23 15.4477 23.4477 15 24 15C24.5523 15 25 15.4477 25 16V24C25 24.7957 24.6839 25.5587 24.1213 26.1213C23.5587 26.6839 22.7957 27 22 27H10C9.20435 27 8.44129 26.6839 7.87868 26.1213C7.31607 25.5587 7 24.7957 7 24V16C7 15.4477 7.44772 15 8 15Z" fill="#212121"/>
</svg>
